<svg xmlns="http://www.w3.org/2000/svg" xmlns:xlink="http://www.w3.org/1999/xlink" viewBox="0 0 305.26 429.18"><defs><style>.cls-1{fill:#39b54a;}.cls-2{fill:url(#linear-gradient);}</style><linearGradient id="linear-gradient" x1="121.09" y1="152.63" x2="184.18" y2="152.63" gradientUnits="userSpaceOnUse"><stop offset="0" stop-color="#cfdc07"/><stop offset="1" stop-color="#1f9238"/></linearGradient></defs><title>ffxxlklvxcb dAsset 25</title><g id="Layer_2" data-name="Layer 2"><g id="Layer_2-2" data-name="Layer 2"><path class="cls-1" d="M152.63,0A152.65,152.65,0,0,0,0,152.63c0,84.28,157.26,276.55,157.26,276.55s148-192.27,148-276.55A152.65,152.65,0,0,0,152.63,0Zm0,31A121.66,121.66,0,1,1,31,152.63,121.67,121.67,0,0,1,152.63,31Z"/><path class="cls-2" d="M151.79,125.34a2.38,2.38,0,0,0-2.31,2.37V233.23a2.37,2.37,0,1,0,4.73,0V127.71a2.33,2.33,0,0,0-2.3-2.37.24.24,0,0,0-.12,0Zm-27.24,48.11a2.29,2.29,0,0,1,1.32.37c.37.26,3.94,2.73,8.31,6.47s9.25,8.41,11.25,13.35c1.58,3.68,1.37,8.47,1.1,12.62a74.11,74.11,0,0,1-.94,7.41,2.39,2.39,0,0,1-2.8,1.89,2.28,2.28,0,0,1-.88-.36s-3.89-2.68-8.26-6.47-9.25-8.41-11.3-13.3c-1.52-3.74-1.37-8.52-1-12.62s.94-7.46.94-7.46A2.25,2.25,0,0,1,124.55,173.45Zm0-37.48a2.25,2.25,0,0,1,1.32.42,97.67,97.67,0,0,1,8.31,6.46c4.36,3.74,9.25,8.36,11.25,13.31,1.58,3.73,1.37,8.51,1.1,12.61a74.59,74.59,0,0,1-.94,7.42,2.37,2.37,0,0,1-2.74,1.91,2.3,2.3,0,0,1-.94-.39s-3.89-2.68-8.26-6.47-9.25-8.35-11.3-13.3c-1.52-3.73-1.37-8.52-1-12.62s.94-7.46.94-7.46A2.27,2.27,0,0,1,124.55,136Zm0-37.5a2.26,2.26,0,0,1,1.32.43,97.67,97.67,0,0,1,8.31,6.46c4.36,3.74,9.25,8.42,11.25,13.31,1.58,3.73,1.37,8.51,1.1,12.61s-.94,7.47-.94,7.47a2.35,2.35,0,0,1-3.68,1.47s-3.89-2.68-8.26-6.46-9.25-8.36-11.3-13.31c-1.52-3.68-1.37-8.51-1-12.61a74.07,74.07,0,0,1,.94-7.42A2.28,2.28,0,0,1,124.55,98.47Zm29.18-28.8a2.43,2.43,0,0,0-1.62.84,73.5,73.5,0,0,0-4.53,6c-2.36,3.36-4.89,7.46-5.41,11.46-.68,5.26,1.21,11.73,3.1,17.14s4,9.78,4,9.78a2.33,2.33,0,0,0,3.89.48s2.2-2.58,4.52-6,4.89-7.47,5.42-11.41c.68-5.31-1.22-11.78-3.1-17.19S156,71,156,71A2.33,2.33,0,0,0,153.73,69.67Zm27,28.8a2.33,2.33,0,0,0-1.32.43,98.43,98.43,0,0,0-8.3,6.46c-4.37,3.74-9.25,8.42-11.26,13.31-1.52,3.73-1.36,8.51-1.05,12.61a70.73,70.73,0,0,0,.9,7.47,2.35,2.35,0,0,0,3.68,1.47s3.89-2.68,8.25-6.41,9.25-8.41,11.3-13.35c1.53-3.69,1.37-8.47,1.06-12.62s-.89-7.42-.89-7.42A2.38,2.38,0,0,0,180.71,98.47Zm0,75a2.29,2.29,0,0,0-1.32.37c-.36.26-3.94,2.73-8.3,6.47s-9.25,8.41-11.26,13.35c-1.52,3.68-1.36,8.47-1.05,12.62a68.18,68.18,0,0,0,.9,7.41,2.38,2.38,0,0,0,2.8,1.89,2.41,2.41,0,0,0,.88-.36,104.29,104.29,0,0,0,8.25-6.47c4.37-3.73,9.25-8.41,11.3-13.3,1.53-3.74,1.37-8.52,1.06-12.62s-.89-7.46-.89-7.46A2.34,2.34,0,0,0,180.71,173.45Zm0-37.48a2.25,2.25,0,0,0-1.32.42,98.43,98.43,0,0,0-8.3,6.46c-4.37,3.74-9.25,8.36-11.26,13.31-1.52,3.73-1.36,8.51-1.05,12.61a68.6,68.6,0,0,0,.9,7.42,2.37,2.37,0,0,0,3.68,1.52,104.29,104.29,0,0,0,8.25-6.47c4.37-3.73,9.25-8.35,11.3-13.3,1.53-3.73,1.37-8.52,1.06-12.62s-.89-7.46-.89-7.46A2.38,2.38,0,0,0,180.71,136Z"/></g></g></svg>