<svg xmlns="http://www.w3.org/2000/svg" xmlns:xlink="http://www.w3.org/1999/xlink" viewBox="0 0 1235.39 348.37"><defs><style>.cls-1{fill:#39b54a;}.cls-2{fill:url(#linear-gradient);}.cls-3{fill:#4d4d4d;}</style><linearGradient id="linear-gradient" x1="98.29" y1="123.89" x2="149.49" y2="123.89" gradientUnits="userSpaceOnUse"><stop offset="0" stop-color="#cfdc07"/><stop offset="1" stop-color="#1f9238"/></linearGradient></defs><title>ffxxlklvxcb dAsset 26</title><g id="Layer_2" data-name="Layer 2"><g id="Layer_2-2" data-name="Layer 2"><path class="cls-1" d="M123.89,0A123.91,123.91,0,0,0,0,123.89C0,192.3,127.65,348.37,127.65,348.37S247.78,192.3,247.78,123.89A123.91,123.91,0,0,0,123.89,0Zm0,25.14a98.75,98.75,0,1,1-98.75,98.75A98.76,98.76,0,0,1,123.89,25.14Z"/><path class="cls-2" d="M123.21,101.74a1.94,1.94,0,0,0-1.88,1.92v85.66a1.92,1.92,0,0,0,3.84,0V103.66a1.9,1.9,0,0,0-1.87-1.93ZM101.1,140.79a1.86,1.86,0,0,1,1.07.3c.3.21,3.2,2.22,6.74,5.25s7.51,6.83,9.14,10.84c1.27,3,1.1,6.87.89,10.24a58.45,58.45,0,0,1-.77,6A1.93,1.93,0,0,1,115.9,175a2,2,0,0,1-.71-.29s-3.16-2.18-6.7-5.25-7.51-6.83-9.18-10.8c-1.24-3-1.11-6.92-.85-10.24s.76-6.06.76-6.06A1.82,1.82,0,0,1,101.1,140.79Zm0-30.43a1.89,1.89,0,0,1,1.07.34,81.07,81.07,0,0,1,6.74,5.25c3.54,3,7.51,6.79,9.14,10.8,1.27,3,1.1,6.91.89,10.24a58.45,58.45,0,0,1-.77,6,1.91,1.91,0,0,1-2.22,1.55,1.83,1.83,0,0,1-.76-.31s-3.16-2.18-6.7-5.25-7.51-6.79-9.18-10.8c-1.24-3-1.11-6.91-.85-10.24s.76-6.06.76-6.06A1.86,1.86,0,0,1,101.1,110.36Zm0-30.43a1.83,1.83,0,0,1,1.07.35,77.34,77.34,0,0,1,6.74,5.24c3.54,3,7.51,6.83,9.14,10.8,1.27,3,1.1,6.91.89,10.24a60.33,60.33,0,0,1-.77,6.06,1.91,1.91,0,0,1-2.22,1.53,2,2,0,0,1-.76-.33s-3.16-2.18-6.7-5.25-7.51-6.78-9.18-10.8c-1.24-3-1.11-6.91-.85-10.24a60.3,60.3,0,0,1,.76-6A1.87,1.87,0,0,1,101.1,79.93Zm23.69-23.38a2,2,0,0,0-1.32.68,59.41,59.41,0,0,0-3.68,4.86c-1.92,2.73-4,6.06-4.39,9.31-.55,4.27,1,9.52,2.52,13.91s3.24,7.94,3.24,7.94a1.89,1.89,0,0,0,3.16.38A60.8,60.8,0,0,0,128,88.77c1.92-2.73,4-6.06,4.39-9.26.56-4.31-1-9.57-2.51-14s-3.25-7.89-3.25-7.89A1.87,1.87,0,0,0,124.79,56.55Zm21.89,23.38a1.82,1.82,0,0,0-1.07.35,79.09,79.09,0,0,0-6.74,5.24c-3.54,3-7.51,6.83-9.13,10.8-1.24,3-1.11,6.91-.86,10.24a57.52,57.52,0,0,0,.73,6.06,1.91,1.91,0,0,0,2.23,1.53,2.15,2.15,0,0,0,.76-.33s3.16-2.18,6.7-5.21,7.51-6.82,9.17-10.83c1.24-3,1.11-6.88.86-10.25s-.73-6-.73-6A1.93,1.93,0,0,0,146.68,79.93Zm0,60.86a1.88,1.88,0,0,0-1.07.3c-.29.21-3.2,2.22-6.74,5.25s-7.51,6.83-9.13,10.84c-1.24,3-1.11,6.87-.86,10.24a55.82,55.82,0,0,0,.73,6,1.93,1.93,0,0,0,2.27,1.53,2.06,2.06,0,0,0,.72-.29s3.16-2.18,6.7-5.25,7.51-6.83,9.17-10.8c1.24-3,1.11-6.92.86-10.24s-.73-6.06-.73-6.06A1.89,1.89,0,0,0,146.68,140.79Zm0-30.43a1.91,1.91,0,0,0-1.07.34,83,83,0,0,0-6.74,5.25c-3.54,3-7.51,6.79-9.13,10.8-1.24,3-1.11,6.91-.86,10.24a55.82,55.82,0,0,0,.73,6,1.92,1.92,0,0,0,3,1.24s3.16-2.18,6.7-5.25,7.51-6.79,9.17-10.8c1.24-3,1.11-6.91.86-10.24s-.73-6.06-.73-6.06A1.93,1.93,0,0,0,146.68,110.36Z"/><path class="cls-3" d="M424.59,95.34H358.68V137.6h55.1c5.1,0,8.92,1.14,11.43,3.43a11.83,11.83,0,0,1,3.78,9.19,11.55,11.55,0,0,1-3.83,9.12q-3.84,3.39-11.38,3.38h-55.1v54.43q0,10.36-4.68,15.38a16.94,16.94,0,0,1-24.11-.06q-4.68-5.07-4.68-15.32V90.05a28,28,0,0,1,2.14-11.78,13.38,13.38,0,0,1,6.71-6.65,28.33,28.33,0,0,1,11.66-2.08h78.87q8,0,11.89,3.55a12,12,0,0,1,3.89,9.3,12.12,12.12,0,0,1-3.89,9.4Q432.6,95.35,424.59,95.34Z"/><path class="cls-3" d="M535.13,220.19a95.36,95.36,0,0,1-21.58,13,60.35,60.35,0,0,1-23.38,4.34,44.26,44.26,0,0,1-20.79-4.68,34.18,34.18,0,0,1-13.8-12.67,32.88,32.88,0,0,1-4.84-17.35,31,31,0,0,1,8-21.52q8-8.91,22-11.95,2.93-.68,14.53-3T515.13,162q8.28-2,18-4.79-.57-12.16-4.9-17.86t-18-5.69q-11.73,0-17.64,3.27a28.74,28.74,0,0,0-10.14,9.8,103.21,103.21,0,0,1-6,8.62c-1.17,1.39-3.66,2.09-7.49,2.09a13.1,13.1,0,0,1-9-3.33,10.8,10.8,0,0,1-3.77-8.5q0-8.11,5.74-15.78t17.92-12.62q12.16-5,30.31-5,20.28,0,31.88,4.79t16.4,15.16q4.79,10.37,4.79,27.49,0,10.81-.06,18.37t-.17,16.79A61.7,61.7,0,0,0,566,212.92q2.87,9.41,2.87,12.11,0,4.74-4.45,8.62a14.94,14.94,0,0,1-10.09,3.89q-4.72,0-9.35-4.45A66,66,0,0,1,535.13,220.19Zm-2-44.51a155.38,155.38,0,0,1-19.66,5.24q-12.9,2.76-17.86,4.06a24.23,24.23,0,0,0-9.47,5.07q-4.5,3.78-4.5,10.53a15.6,15.6,0,0,0,5.29,11.89q5.3,4.91,13.86,4.9a36,36,0,0,0,16.85-4,26.63,26.63,0,0,0,11.32-10.31q4.17-7,4.17-23Z"/><path class="cls-3" d="M625,193.15v25.69q0,9.34-4.39,14a14.65,14.65,0,0,1-11.16,4.68,14.11,14.11,0,0,1-10.93-4.73q-4.27-4.74-4.28-14V133.2q0-20.73,15-20.73,7.66,0,11,4.85T624,131.63q5.52-9.47,11.32-14.31t15.5-4.85a39.62,39.62,0,0,1,18.81,4.85q9.14,4.84,9.13,12.84a12.23,12.23,0,0,1-3.89,9.3,12.06,12.06,0,0,1-8.39,3.66q-1.69,0-8.17-2.09A38,38,0,0,0,646.9,139c-4.5,0-8.19,1.18-11,3.55s-5.07,5.88-6.65,10.53A74,74,0,0,0,626,169.65Q625,179.3,625,193.15Z"/><path class="cls-3" d="M797.89,177.26v40.9q0,9.69-4.4,14.54a14.92,14.92,0,0,1-11.6,4.84,14.5,14.5,0,0,1-11.32-4.84q-4.35-4.84-4.34-14.54v-49a158.65,158.65,0,0,0-.79-18,19.68,19.68,0,0,0-4.28-10.54q-3.49-4.11-11-4.11-15.09,0-19.88,10.37t-4.79,29.74v41.58q0,9.59-4.34,14.48a14.52,14.52,0,0,1-11.44,4.9,14.73,14.73,0,0,1-11.43-4.9q-4.46-4.9-4.45-14.48v-88q0-8.67,4-13.18a13.37,13.37,0,0,1,10.53-4.51,14.3,14.3,0,0,1,10.54,4.23q4.21,4.22,4.22,11.66v2.93A53.45,53.45,0,0,1,740.2,117.2a45.2,45.2,0,0,1,20.28-4.5q11.61,0,19.94,4.62a36.08,36.08,0,0,1,13.75,14,53.35,53.35,0,0,1,16.68-14,42.57,42.57,0,0,1,19.71-4.56q12.63,0,21.75,5A31.59,31.59,0,0,1,866,131.85q3.93,8.34,3.94,26.25v60.06q0,9.69-4.4,14.54a14.92,14.92,0,0,1-11.6,4.84,14.75,14.75,0,0,1-11.44-4.9q-4.46-4.9-4.45-14.48V166.44a119.33,119.33,0,0,0-.84-15.89,18.23,18.23,0,0,0-4.57-10q-3.71-4.07-11.26-4.06a20.57,20.57,0,0,0-11.55,3.61,24.4,24.4,0,0,0-8.51,9.69Q797.9,157.54,797.89,177.26Z"/><path class="cls-1" d="M1010.73,95.34H935.35v40.57h69.41q7.66,0,11.44,3.43a11.72,11.72,0,0,1,3.77,9.07,12.14,12.14,0,0,1-3.72,9.19q-3.71,3.54-11.49,3.55H935.35v47h78q7.88,0,11.88,3.66a12.58,12.58,0,0,1,4,9.75,12.29,12.29,0,0,1-4,9.52q-4,3.66-11.88,3.66H922.4q-10.93,0-15.72-4.84t-4.79-15.66V90.05A27.85,27.85,0,0,1,904,78.27a13.36,13.36,0,0,1,6.7-6.65,28.39,28.39,0,0,1,11.67-2.08h88.33q8,0,11.89,3.55a12,12,0,0,1,3.89,9.3,12.12,12.12,0,0,1-3.89,9.4Q1018.73,95.35,1010.73,95.34Z"/><path class="cls-3" d="M1202.64,78.9a5.57,5.57,0,0,0-3.42-1,5.82,5.82,0,0,0-4.13,1.49q-1.69,1.67-1.69,6.86V91.5h11.69V86.28a15.75,15.75,0,0,0-.57-4.58A5.38,5.38,0,0,0,1202.64,78.9Z"/><path class="cls-3" d="M1214.25,115.22a17.81,17.81,0,0,0-7.65-1.47,18.05,18.05,0,0,0-7.28,1.35,10.22,10.22,0,0,0-4.66,3.88,10.69,10.69,0,0,0-1.58,5.78,10.4,10.4,0,0,0,.88,4.3,9.47,9.47,0,0,0,2.54,3.39,12.08,12.08,0,0,0,4.27,2.24,19.23,19.23,0,0,0,5.83.83,19.65,19.65,0,0,0,5.9-.83,12,12,0,0,0,4.38-2.32,9.81,9.81,0,0,0,2.59-3.44,10.35,10.35,0,0,0,.87-4.27,10.48,10.48,0,0,0-1.49-5.47A10.29,10.29,0,0,0,1214.25,115.22Z"/><path class="cls-3" d="M1235.39,66.83h-78.22a13.79,13.79,0,0,1,8.32,3.67,11.9,11.9,0,0,1,4,9q0,7.55-8.67,20.5l-32.57,48.68,35,54a90.59,90.59,0,0,1,6.87,11.78,21.2,21.2,0,0,1,2.14,8.84,14.06,14.06,0,0,1-1.91,7.21,13.77,13.77,0,0,1-5.41,5.18,15.74,15.74,0,0,1-6.62,1.88h77Zm-9.94,166.34a3.68,3.68,0,0,1-2.92,1.18,3.81,3.81,0,0,1-2.74-1.12,3.71,3.71,0,0,1-1.15-2.77,3.9,3.9,0,0,1,1.13-2.81,4,4,0,0,1,5.67,0,4,4,0,0,1,1.06,2.73A4,4,0,0,1,1225.45,233.17Zm-1.09-19.84a12.41,12.41,0,0,1-4.12,4.25,9.38,9.38,0,0,1-5,1.63,3.36,3.36,0,0,1-2.42-1,3.32,3.32,0,0,1-1-2.49,3,3,0,0,1,.78-2.08,6.12,6.12,0,0,1,2.32-1.45,15.5,15.5,0,0,0,3.06-1.58,6.4,6.4,0,0,0,2-2.39,8.79,8.79,0,0,0,.8-4,9.12,9.12,0,0,0-1.61-5.6,4.83,4.83,0,0,0-4-2.16,4.21,4.21,0,0,0-3.09,1.17,7.36,7.36,0,0,0-1.81,3,50.33,50.33,0,0,0-1.34,4.92,35.82,35.82,0,0,1-2.25,6.9,11,11,0,0,1-3.53,4.41,9.13,9.13,0,0,1-5.55,1.64,9.54,9.54,0,0,1-5.61-1.73,10.87,10.87,0,0,1-3.77-5,20.44,20.44,0,0,1-1.32-7.68,18.73,18.73,0,0,1,.88-6.09,12.69,12.69,0,0,1,2.32-4.27,9.75,9.75,0,0,1,3-2.48,7,7,0,0,1,3.11-.78,3.64,3.64,0,0,1,2.49,1,3.11,3.11,0,0,1,1.11,2.44,2.78,2.78,0,0,1-.67,2,8.93,8.93,0,0,1-2.18,1.5,9.92,9.92,0,0,0-3.38,2.51c-.81,1-1.21,2.54-1.21,4.7a8.13,8.13,0,0,0,1.32,4.84,3.86,3.86,0,0,0,3.17,1.84,3.17,3.17,0,0,0,2-.63,5.26,5.26,0,0,0,1.44-1.72,11.82,11.82,0,0,0,.94-2.22c.23-.75.56-2,1-3.71a59.26,59.26,0,0,1,1.67-5.86,17.85,17.85,0,0,1,2.22-4.46,9.12,9.12,0,0,1,3.3-2.87,10.57,10.57,0,0,1,4.9-1,11.28,11.28,0,0,1,6.24,1.78,11.92,11.92,0,0,1,4.33,5.24,19.68,19.68,0,0,1,1.57,8.17A18.42,18.42,0,0,1,1224.36,213.33Zm-2.59-38.92a5,5,0,0,1,3.55,1.1,3.66,3.66,0,0,1,1.18,2.82,3.53,3.53,0,0,1-1.19,2.79,5.2,5.2,0,0,1-3.54,1h-30.15a5.17,5.17,0,0,1-3.52-1,3.51,3.51,0,0,1-1.18-2.8,3.69,3.69,0,0,1,1.16-2.83,5,5,0,0,1,3.54-1.09h11V157.68h-11a5.07,5.07,0,0,1-3.52-1.06,3.53,3.53,0,0,1-1.18-2.78,3.71,3.71,0,0,1,1.16-2.83,5.07,5.07,0,0,1,3.54-1.08h30.15a5,5,0,0,1,3.55,1.09,3.66,3.66,0,0,1,1.18,2.82,3.56,3.56,0,0,1-1.19,2.8,5.25,5.25,0,0,1-3.54,1H1208.9v16.73Zm3.28-41.77a15.94,15.94,0,0,1-4.09,5.93,17.45,17.45,0,0,1-6.34,3.59,25.58,25.58,0,0,1-8,1.21,24.87,24.87,0,0,1-8.09-1.26,17.45,17.45,0,0,1-6.26-3.67,15.84,15.84,0,0,1-4-5.85,21.07,21.07,0,0,1-1.37-7.83,20.44,20.44,0,0,1,2.42-10.22,15.7,15.7,0,0,1,6.86-6.46,23.43,23.43,0,0,1,10.46-2.19,25.5,25.5,0,0,1,8.06,1.2,17.4,17.4,0,0,1,6.29,3.6,15.71,15.71,0,0,1,4.08,5.9,23.23,23.23,0,0,1,0,16Zm.26-34.45a5.06,5.06,0,0,1-3.49,1.07h-29.49a4.8,4.8,0,0,1-3.66-1.18,5.33,5.33,0,0,1-1.09-3.73V84.4a26.17,26.17,0,0,1,.67-6.78,10.14,10.14,0,0,1,2.17-4.06,9.71,9.71,0,0,1,3.71-2.6,13,13,0,0,1,4.93-.89q5.85,0,8.86,3.6t3,10.73v7.1h10.83a5.08,5.08,0,0,1,3.53,1.1,3.58,3.58,0,0,1,1.2,2.77A3.64,3.64,0,0,1,1225.31,98.19Z"/><path class="cls-1" d="M1155.18,66.72a17.32,17.32,0,0,0-1.94.11h3.93A18.23,18.23,0,0,0,1155.18,66.72Z"/><path class="cls-1" d="M1083,86.1Q1076.09,75,1072.2,70.84t-10.87-4.12A14.89,14.89,0,0,0,1051,70.5q-4.23,3.78-4.23,8.5a23.87,23.87,0,0,0,2.2,9.64,94.79,94.79,0,0,0,6.59,12l31.1,48-37,54q-8.22,12.06-8.23,20.4,0,7.1,4,10.81a14.24,14.24,0,0,0,10.09,3.72,17.45,17.45,0,0,0,6.87-1.24,15.75,15.75,0,0,0,5.07-3.38,29.68,29.68,0,0,0,3.66-4.39c1-1.51,2.73-4.13,5.13-7.89l30.39-46.36V124.52Z"/><path class="cls-1" d="M1157.1,237.54c.43,0,.86,0,1.27,0h-2.61C1156.2,237.53,1156.64,237.54,1157.1,237.54Z"/><path class="cls-1" d="M1170.4,230.44a14.06,14.06,0,0,0,1.91-7.21,21.2,21.2,0,0,0-2.14-8.84,90.59,90.59,0,0,0-6.87-11.78l-35-54L1160.82,100q8.67-12.94,8.67-20.5a11.9,11.9,0,0,0-4-9,13.79,13.79,0,0,0-8.32-3.67h-3.93a13.79,13.79,0,0,0-4.2,1.08,14.4,14.4,0,0,0-4.79,3.55,45.36,45.36,0,0,0-4.45,6l-5.57,8.67-26.48,40.12-1-1.7v49.76l.48-.74,29.07,45.75q5.52,8.44,7.55,11.38a17.1,17.1,0,0,0,5.3,4.9,14.58,14.58,0,0,0,6.66,1.93h2.61a15.74,15.74,0,0,0,6.62-1.88A13.77,13.77,0,0,0,1170.4,230.44Z"/><path class="cls-1" d="M346.33,297.79h-12.7v10.46h13.91l-.29,1.77H331.71v-24.9H347v1.78H333.63V296h12.7Z"/><path class="cls-1" d="M369.84,310l-9.25-24.9h2.06l4.84,13c1.39,3.77,2.95,7.94,3.49,10h.07c.53-1.85,2.24-6.22,3.63-9.88l5-13.17h2L372.11,310Z"/><path class="cls-1" d="M410.74,297.79H398v10.46H412l-.28,1.77H396.12v-24.9h15.26v1.78H398V296h12.7Z"/><path class="cls-1" d="M429,298.39V310h-2v-24.9H436c4.91,0,7.51,2.64,7.51,6.55a5.64,5.64,0,0,1-4.66,5.83c2.56.61,4.26,2.28,4.26,6.51v1c0,1.75-.14,4.09.33,5h-2c-.46-1.06-.36-3.06-.36-5.19v-.64c0-4.09-1.21-5.8-6-5.8Zm0-1.78h6c4.38,0,6.4-1.63,6.4-4.91,0-3.05-2-4.8-5.87-4.8H429Z"/><path class="cls-1" d="M465.52,310v-9.35a1.25,1.25,0,0,0-.14-.57l-8.9-15h2.24c2.49,4.24,6.83,11.6,7.9,13.45,1.07-1.85,5.44-9.14,8.11-13.45h2.14l-9.29,15.12a1.12,1.12,0,0,0-.11.54V310Z"/><path class="cls-1" d="M510.69,297.4c0,6.79-3.63,13-11.31,13-7,0-11.1-5.66-11.1-12.81s4-12.8,11.35-12.8C506.46,284.77,510.69,290.14,510.69,297.4Zm-20.35.07c0,5.72,3.17,11.13,9.15,11.13,6.44,0,9.14-5.26,9.14-11.17s-3.06-10.88-9.07-10.88C493.15,286.55,490.34,291.85,490.34,297.47Z"/><path class="cls-1" d="M526.34,310v-24.9h2.85c3.87,6,13,19.89,14.55,22.59h0c-.21-3.59-.18-7.25-.18-11.31V285.12h2V310h-2.63c-3.7-5.76-12.95-20.24-14.73-23h0c.18,3.28.15,6.91.15,11.42V310Z"/><path class="cls-1" d="M577.67,297.79H565v10.46h13.91l-.29,1.77H563.05v-24.9h15.26v1.78H565V296h12.7Z"/><path class="cls-1" d="M632.16,303.37a9.09,9.09,0,0,1-9.36,6.94c-7.15,0-10.92-5.69-10.92-12.7,0-6.72,3.7-12.84,11-12.84,5.37,0,8.54,3,9.36,7.15h-1.92c-1.14-3.24-3.24-5.37-7.55-5.37-6.19,0-8.78,5.65-8.78,11s2.56,11,8.93,11c4,0,6.11-2.1,7.36-5.16Z"/><path class="cls-1" d="M650,301.42l-3.16,8.6h-2l9.14-24.9h2.28l9.53,24.9h-2.1l-3.23-8.6Zm9.86-1.78c-2.78-7.4-4.2-11-4.7-12.63h0c-.61,1.88-2.21,6.3-4.45,12.63Z"/><path class="cls-1" d="M680.43,310v-24.9h2.84c3.88,6,13,19.89,14.55,22.59h0c-.22-3.59-.18-7.25-.18-11.31V285.12h2V310H697c-3.7-5.76-13-20.24-14.72-23h0c.18,3.28.14,6.91.14,11.42V310Z"/><path class="cls-1" d="M736.2,285.12h8.68c4.76,0,7.33,2.53,7.33,6.12a5.37,5.37,0,0,1-3.85,5.44,6.31,6.31,0,0,1,4.74,6.16c0,5-3.74,7.18-8.08,7.18H736.2Zm8,10.71c4.3,0,5.94-1.6,5.94-4.48,0-2.46-1.71-4.45-5.2-4.45h-6.9v8.93Zm-6.16,12.42h7c3.27,0,6-1.64,6-5.3,0-3.17-2-5.34-7-5.34h-6Z"/><path class="cls-1" d="M783.58,297.79h-12.7v10.46h13.91L784.5,310H769v-24.9h15.26v1.78H770.88V296h12.7Z"/><path class="cls-1" d="M821.85,301.42l-3.17,8.6h-1.95l9.14-24.9h2.28l9.53,24.9h-2.1l-3.24-8.6Zm9.85-1.78c-2.77-7.4-4.2-11-4.69-12.63h0c-.6,1.88-2.2,6.3-4.45,12.63Z"/><path class="cls-1" d="M871.68,285.12h1.92v23.13H887l-.36,1.77H871.68Z"/><path class="cls-1" d="M902.91,285.12V310H901v-24.9Z"/><path class="cls-1" d="M925.39,286.9H917v-1.78h18.71v1.78h-8.39V310h-2Z"/><path class="cls-1" d="M956.48,286.9h-8.36v-1.78h18.71v1.78h-8.4V310h-1.95Z"/><path class="cls-1" d="M980.7,285.12h1.92v23.13H996l-.36,1.77H980.7Z"/><path class="cls-1" d="M1024.63,297.79h-12.7v10.46h13.91l-.29,1.77H1010v-24.9h15.26v1.78h-13.34V296h12.7Z"/><path class="cls-1" d="M1079.55,310H1078a18.31,18.31,0,0,1-.25-4c-.89,1.71-2.85,4.27-8,4.27-7.15,0-10.82-5.44-10.82-12.52,0-7.44,3.92-13,11.21-13,5.37,0,8.93,2.81,9.71,7.4h-1.92c-1.07-3.52-3.52-5.62-7.86-5.62-6.23,0-9.07,4.83-9.07,11.13,0,5.69,2.74,10.85,8.82,10.85,6.23,0,8-4.06,8-9.57v-.28h-8V296.9h9.89Z"/><path class="cls-1" d="M1098.11,298.39V310h-1.95v-24.9h8.93c4.91,0,7.5,2.64,7.5,6.55a5.63,5.63,0,0,1-4.66,5.83c2.56.61,4.27,2.28,4.27,6.51v1c0,1.75-.14,4.09.32,5h-2c-.46-1.06-.35-3.06-.35-5.19v-.64c0-4.09-1.21-5.8-6-5.8Zm0-1.78h6c4.37,0,6.4-1.63,6.4-4.91,0-3.05-2-4.8-5.87-4.8h-6.55Z"/><path class="cls-1" d="M1143.47,297.79h-12.7v10.46h13.9l-.28,1.77h-15.55v-24.9h15.27v1.78h-13.34V296h12.7Z"/><path class="cls-1" d="M1174.37,297.79h-12.69v10.46h13.9l-.28,1.77h-15.55v-24.9H1175v1.78h-13.34V296h12.69Z"/><path class="cls-1" d="M1190.66,310v-24.9h2.85c3.88,6,13,19.89,14.55,22.59h0c-.21-3.59-.17-7.25-.17-11.31V285.12h1.95V310h-2.63c-3.7-5.76-13-20.24-14.73-23h0c.18,3.28.14,6.91.14,11.42V310Z"/><path class="cls-1" d="M1228.94,302.06l-.18-12.53v-4.41h2v4.41l-.18,12.53Zm-.14,8v-4.23h1.81v4.23Z"/></g></g></svg>